<svg width="146" height="91" viewBox="0 0 146 91" fill="none" xmlns="http://www.w3.org/2000/svg">
<path d="M133.064 34.06C126.55 34.06 121.25 28.6294 121.25 21.9553C121.25 20.6134 122.312 19.5266 123.62 19.5266C124.929 19.5266 125.989 20.6134 125.989 21.9553C125.989 25.9517 129.163 29.2038 133.064 29.2038C136.965 29.2038 140.139 25.9517 140.139 21.9553C140.139 17.9576 136.965 14.7068 133.064 14.7068H31.168C29.8584 14.7068 28.7976 13.6187 28.7976 12.278C28.7976 10.9374 29.8584 9.85052 31.168 9.85052H133.064C139.579 9.85052 144.879 15.2799 144.879 21.9553C144.879 28.6294 139.579 34.06 133.064 34.06Z" fill="#9DB7BF"/>
<path d="M25.1681 24.7487H3.25265C1.93385 24.7487 0.863525 23.7762 0.863525 22.5766C0.863525 21.3759 1.93385 20.4034 3.25265 20.4034H25.1681C26.4869 20.4034 27.5561 21.3759 27.5561 22.5766C27.5561 23.7762 26.4869 24.7487 25.1681 24.7487Z" fill="#9DB7BF"/>
<path d="M88.3633 43.3714C81.8442 43.3714 76.542 38.2192 76.542 31.8874C76.542 30.6155 77.6034 29.5832 78.9126 29.5832C80.2219 29.5832 81.2845 30.6155 81.2845 31.8874C81.2845 35.6789 84.4592 38.7642 88.3633 38.7642C92.2662 38.7642 95.4421 35.6789 95.4421 31.8874C95.4421 28.0959 92.2662 25.0106 88.3633 25.0106H34.272C32.9628 25.0106 31.9014 23.9795 31.9014 22.7064C31.9014 21.4345 32.9628 20.4034 34.272 20.4034H88.3633C94.8811 20.4034 100.185 25.5555 100.185 31.8874C100.185 38.2192 94.8811 43.3714 88.3633 43.3714Z" fill="#9DB7BF"/>
<path d="M65.5262 35.9223H13.1759C11.862 35.9223 10.7957 34.8109 10.7957 33.4386C10.7957 32.0677 11.862 30.9562 13.1759 30.9562H65.5262C66.8401 30.9562 67.9053 32.0677 67.9053 33.4386C67.9053 34.8109 66.8401 35.9223 65.5262 35.9223Z" fill="#9DB7BF"/>
<path d="M44.481 4.88448H8.76997C7.48836 4.88448 6.45032 3.91089 6.45032 2.71129C6.45032 1.51169 7.48836 0.539185 8.76997 0.539185H44.481C45.7614 0.539185 46.7995 1.51169 46.7995 2.71129C46.7995 3.91089 45.7614 4.88448 44.481 4.88448Z" fill="#9DB7BF"/>
<path d="M133.2 81.5208C126.686 81.5208 121.386 76.0902 121.386 69.4161C121.386 68.0742 122.448 66.9874 123.757 66.9874C125.065 66.9874 126.126 68.0742 126.126 69.4161C126.126 73.4126 129.3 76.6646 133.2 76.6646C137.102 76.6646 140.276 73.4126 140.276 69.4161C140.276 65.4184 137.102 62.1676 133.2 62.1676H31.3045C29.9948 62.1676 28.9341 61.0795 28.9341 59.7388C28.9341 58.3982 29.9948 57.3113 31.3045 57.3113H133.2C139.715 57.3113 145.016 62.7407 145.016 69.4161C145.016 76.0902 139.715 81.5208 133.2 81.5208V81.5208Z" fill="#9DB7BF"/>
<path d="M25.3046 72.2095H3.38913C2.07033 72.2095 1 71.237 1 70.0374C1 68.8367 2.07033 67.8642 3.38913 67.8642H25.3046C26.6234 67.8642 27.6925 68.8367 27.6925 70.0374C27.6925 71.237 26.6234 72.2095 25.3046 72.2095Z" fill="#9DB7BF"/>
<path d="M88.4998 90.8322C81.9807 90.8322 76.6784 85.6801 76.6784 79.3482C76.6784 78.0763 77.7399 77.044 79.0491 77.044C80.3584 77.044 81.421 78.0763 81.421 79.3482C81.421 83.1397 84.5957 86.225 88.4998 86.225C92.4026 86.225 95.5785 83.1397 95.5785 79.3482C95.5785 75.5567 92.4026 72.4714 88.4998 72.4714H34.4085C33.0992 72.4714 32.0378 71.4403 32.0378 70.1672C32.0378 68.8953 33.0992 67.8642 34.4085 67.8642H88.4998C95.0176 67.8642 100.321 73.0163 100.321 79.3482C100.321 85.6801 95.0176 90.8322 88.4998 90.8322V90.8322Z" fill="#9DB7BF"/>
<path d="M65.6627 83.3831H13.3124C11.9985 83.3831 10.9321 82.2717 10.9321 80.8995C10.9321 79.5285 11.9985 78.4171 13.3124 78.4171H65.6627C66.9766 78.4171 68.0417 79.5285 68.0417 80.8995C68.0417 82.2717 66.9766 83.3831 65.6627 83.3831Z" fill="#9DB7BF"/>
<path d="M44.6175 52.3453H8.90644C7.62484 52.3453 6.58679 51.3717 6.58679 50.1721C6.58679 48.9725 7.62484 48 8.90644 48H44.6175C45.8979 48 46.936 48.9725 46.936 50.1721C46.936 51.3717 45.8979 52.3453 44.6175 52.3453Z" fill="#9DB7BF"/>
</svg>
