<svg width="26" height="25" viewBox="0 0 26 25" fill="none" xmlns="http://www.w3.org/2000/svg">
<path d="M12.9892 22.9167C7.00749 22.9109 2.16267 18.2447 2.16666 12.4931C2.17065 6.74146 7.02193 2.08143 13.0036 2.08334C18.9853 2.08526 23.8333 6.7484 23.8333 12.5C23.8297 18.2556 18.975 22.919 12.9892 22.9167ZM4.33333 12.6792C4.38458 17.2638 8.27786 20.9474 13.0461 20.9229C17.8143 20.8982 21.6662 17.1745 21.6662 12.5896C21.6662 8.0047 17.8143 4.28102 13.0461 4.25625C8.27786 4.23173 4.38458 7.91538 4.33333 12.5V12.6792ZM14.0833 17.7083H11.9167V15.625H14.0833V17.7083ZM14.0833 13.5417H11.9167V7.29167H14.0833V13.5417Z" fill="url(#paint0_linear)"/>
<defs>
<linearGradient id="paint0_linear" x1="13" y1="2.08334" x2="13" y2="22.9167" gradientUnits="userSpaceOnUse">
<stop stop-color="#FF4F6F"/>
<stop offset="1" stop-color="#BB1C38"/>
</linearGradient>
</defs>
</svg>
